<?xml version="1.0" encoding="UTF-8" standalone="no"?>
<!DOCTYPE svg PUBLIC "-//W3C//DTD SVG 1.1//EN"
 "http://www.w3.org/Graphics/SVG/1.1/DTD/svg11.dtd">
<!-- Generated by graphviz version 2.38.0 (20140413.2041)
 -->
<!-- Title: G Pages: 1 -->
<svg width="156pt" height="168pt"
 viewBox="0.00 0.00 156.00 168.00" xmlns="http://www.w3.org/2000/svg" xmlns:xlink="http://www.w3.org/1999/xlink">
<g id="graph0" class="graph" transform="scale(1 1) rotate(0) translate(4 164)">
<title>G</title>
<polygon fill="white" stroke="none" points="-4,4 -4,-164 152,-164 152,4 -4,4"/>
<g id="clust1" class="cluster"><title>cluster_Global</title>
<path fill="none" stroke="gray" d="M20,-8C20,-8 128,-8 128,-8 134,-8 140,-14 140,-20 140,-20 140,-140 140,-140 140,-146 134,-152 128,-152 128,-152 20,-152 20,-152 14,-152 8,-146 8,-140 8,-140 8,-20 8,-20 8,-14 14,-8 20,-8"/>
<text text-anchor="middle" x="74" y="-139.2" font-family="Times,serif" font-size="11.00" fill="gray">Global</text>
</g>
<g id="clust2" class="cluster"><title>cluster_\Kumuwai</title>
<path fill="none" stroke="gray" d="M28,-16C28,-16 120,-16 120,-16 126,-16 132,-22 132,-28 132,-28 132,-112 132,-112 132,-118 126,-124 120,-124 120,-124 28,-124 28,-124 22,-124 16,-118 16,-112 16,-112 16,-28 16,-28 16,-22 22,-16 28,-16"/>
<text text-anchor="middle" x="74" y="-111.2" font-family="Times,serif" font-size="11.00" fill="gray">Kumuwai</text>
</g>
<g id="clust3" class="cluster"><title>cluster_\Kumuwai\MockObject</title>
<path fill="none" stroke="gray" d="M36,-24C36,-24 112,-24 112,-24 118,-24 124,-30 124,-36 124,-36 124,-84 124,-84 124,-90 118,-96 112,-96 112,-96 36,-96 36,-96 30,-96 24,-90 24,-84 24,-84 24,-36 24,-36 24,-30 30,-24 36,-24"/>
<text text-anchor="middle" x="74" y="-83.2" font-family="Times,serif" font-size="11.00" fill="gray">MockObject</text>
</g>
<!-- \\Kumuwai\\MockObject\\MockObject -->
<g id="node1" class="node"><title>\\Kumuwai\\MockObject\\MockObject</title>
<polygon fill="none" stroke="black" points="116,-68 32,-68 32,-32 116,-32 116,-68"/>
<text text-anchor="middle" x="74" y="-47.2" font-family="Courier,monospace" font-size="11.00">MockObject</text>
</g>
</g>
</svg>
